<?xml version="1.0" standalone="no"?>
<!DOCTYPE svg PUBLIC "-//W3C//DTD SVG 20010904//EN"
 "http://www.w3.org/TR/2001/REC-SVG-20010904/DTD/svg10.dtd">
<svg version="1.0" xmlns="http://www.w3.org/2000/svg"
 width="900.000000pt" height="1203.000000pt" viewBox="0 0 900.000000 1203.000000"
 preserveAspectRatio="xMidYMid meet">

<g transform="translate(0.000000,1203.000000) scale(0.100000,-0.100000)"
fill="#000000" stroke="none">
<path d="M3645 11914 c-392 -77 -545 -112 -620 -140 -260 -95 -661 -246 -679
-256 -27 -14 -515 -318 -628 -391 -73 -47 -104 -77 -188 -178 -218 -262 -590
-734 -687 -874 -20 -28 -192 -536 -248 -730 -42 -147 -116 -622 -136 -875 -6
-80 -12 -282 -12 -450 -1 -272 2 -329 25 -526 15 -121 56 -385 92 -585 77
-427 96 -546 96 -613 l0 -50 -104 103 c-116 114 -93 107 -234 70 -90 -24 -167
-62 -187 -92 -19 -29 -72 -204 -90 -300 -8 -40 -20 -206 -27 -370 l-12 -298
33 -267 c37 -290 60 -394 155 -677 102 -303 128 -354 264 -519 74 -91 124
-129 257 -196 145 -73 152 -73 259 -5 68 44 90 54 97 43 8 -12 25 -81 154
-628 81 -342 119 -482 190 -700 l63 -195 12 -690 11 -690 -40 -396 c-23 -218
-41 -406 -41 -418 l0 -21 3095 0 3095 0 -5 37 c-15 119 -82 873 -101 1138 -20
284 -15 509 16 795 25 234 31 263 110 500 60 178 100 336 231 905 73 319 86
365 102 365 7 0 40 -16 73 -36 108 -67 111 -68 158 -54 59 17 208 96 274 145
75 54 203 224 258 340 45 96 157 428 198 585 13 52 36 172 50 267 25 166 26
188 26 623 l0 452 -40 101 c-38 96 -56 125 -139 225 -36 44 -42 46 -182 56
l-66 5 -79 -80 c-43 -44 -91 -89 -106 -100 -24 -17 -26 -18 -22 -2 15 66 149
954 174 1153 43 356 48 445 39 730 -11 333 -22 451 -70 769 -55 363 -46 327
-204 812 l-103 315 -105 165 c-59 90 -142 207 -185 259 -64 78 -303 340 -497
547 -22 23 -197 146 -390 274 l-349 232 -266 99 c-408 153 -560 201 -810 253
-326 67 -480 93 -631 105 -211 16 -667 40 -739 39 -38 -1 -280 -44 -585 -105z"/>
</g>
</svg>
